<svg xmlns="http://www.w3.org/2000/svg" xmlns:xlink="http://www.w3.org/1999/xlink" version="1.1" x="0px" y="0px" viewBox="0 0 100 97.96625" enable-background="new 0 0 100 78.373" xml:space="preserve"><path d="M78.154,74.677V0h-1.85H21.847v74.676H8.494v3.697h83.013v-3.696H78.154z M40.525,63.396v11.279H25.543V3.696h48.914v70.979  H59.476l0.001-11.279H40.525z"/><rect x="54.422" y="43.303" width="12.402" height="8.825"/><rect x="54.422" y="27.945" width="12.402" height="8.826"/><rect x="54.422" y="12.589" width="12.401" height="8.826"/><rect x="33.176" y="27.945" width="12.402" height="8.826"/><rect x="33.177" y="43.302" width="12.402" height="8.825"/><rect x="33.176" y="12.589" width="12.402" height="8.826"/><polygon points="4.024,29.285 8.607,22.067 4.024,14.625 8.264,7.948 5.383,6.119 0,14.597 4.583,22.04 0,29.258 4.582,36.701   0,43.919 4.583,51.362 0,58.579 0.14,58.807 5.366,67.295 8.271,65.506 4.024,58.607 8.607,51.39 4.024,43.947 8.607,36.729 "/><polygon points="11.947,29.285 16.529,22.067 11.947,14.625 16.187,7.948 13.306,6.119 7.922,14.597 12.504,22.04 7.922,29.258   12.505,36.701 7.922,43.919 12.506,51.362 7.922,58.579 8.063,58.807 13.288,67.294 16.194,65.506 11.947,58.607 16.529,51.39   11.947,43.947 16.529,36.729 "/><polygon points="95.418,22.04 100,14.597 94.617,6.118 91.737,7.948 95.977,14.625 91.393,22.067 95.977,29.286 91.393,36.729   95.976,43.947 91.393,51.39 95.976,58.607 91.729,65.505 92.093,65.729 94.635,67.296 100,58.58 95.418,51.361 100,43.919   95.418,36.7 100,29.259 "/><polygon points="87.495,22.04 92.078,14.597 86.695,6.118 83.814,7.947 88.053,14.625 83.471,22.067 88.054,29.286 83.471,36.729   88.054,43.947 83.471,51.39 88.053,58.607 83.807,65.505 84.17,65.729 86.713,67.296 92.078,58.58 87.495,51.361 92.078,43.919   87.495,36.7 92.078,29.259 "/><text x="0" y="93.373" fill="#000000" font-size="5px" font-weight="bold" font-family="'Helvetica Neue', Helvetica, Arial-Unicode, Arial, Sans-serif">Created by Mauro Lucchesi</text><text x="0" y="98.373" fill="#000000" font-size="5px" font-weight="bold" font-family="'Helvetica Neue', Helvetica, Arial-Unicode, Arial, Sans-serif">from the Noun Project</text></svg>